<svg width="725" height="725" viewBox="0 0 725 725" fill="none" xmlns="http://www.w3.org/2000/svg">
<rect width="725" height="725" rx="166" fill="#000004"/>
<path d="M580.094 289.36C579.474 289.01 578.985 289.15 578.627 289.778C578.42 290.144 578.138 290.216 577.78 289.993C577.318 289.714 576.972 289.333 576.741 288.847C576.737 288.838 576.736 288.827 576.737 288.817C576.738 288.807 576.741 288.797 576.747 288.789C576.754 288.78 576.762 288.773 576.771 288.769C576.78 288.765 576.791 288.763 576.801 288.764C576.905 288.788 577.004 288.78 577.099 288.74C577.473 288.597 577.318 288.501 576.634 288.454C576.507 288.438 576.431 288.366 576.407 288.239C576.32 287.602 576.006 287.463 575.465 287.821C575.25 287.956 575.019 288.052 574.773 288.108C574.136 288.259 573.635 288.064 573.269 287.523C572.832 286.879 572.267 286.429 571.575 286.175C571.201 286.039 570.931 285.789 570.763 285.423L570.441 284.755C570.308 284.464 570.108 284.203 569.857 283.991C567.892 282.328 566.054 280.443 564.344 278.335C563.779 277.643 563.942 277.297 564.833 277.297L565.68 277.285C566.293 277.285 566.333 277.13 565.8 276.82C564.933 276.319 564.165 275.619 563.497 274.72C563.274 274.409 562.984 274.191 562.626 274.063C562.467 274 562.304 273.972 562.137 273.98C561.707 273.988 561.385 273.805 561.17 273.431C560.394 272.047 559.5 270.472 558.211 269.529C557.455 268.988 556.771 268.34 556.159 267.584C555.888 267.258 555.546 267.079 555.132 267.047C554.512 266.992 554.114 266.658 553.939 266.045C553.724 265.265 553.514 264.462 553.307 263.635C553.203 263.229 552.941 262.994 552.519 262.931C551.342 262.764 550.733 262.04 550.694 260.759C550.678 260.345 550.471 260.075 550.073 259.948C549.556 259.789 549.258 259.443 549.178 258.91C549.13 258.599 548.955 258.4 548.653 258.313C547.285 257.899 545.968 257.76 544.704 257.895C542.572 258.126 540.285 258.337 537.843 258.528C537.684 258.544 537.564 258.619 537.485 258.754C537.286 259.065 537.031 259.097 536.721 258.85C536.56 258.72 536.334 258.527 536.065 258.289C535.468 257.764 534.804 257.625 534.072 257.871C533.428 258.094 532.756 258.174 532.056 258.11C530.839 257.983 529.574 257.665 528.261 257.156L517.701 241.703C507.4 229.366 496.068 218.36 483.707 208.687C469.853 197.841 454.867 189.751 439.045 182.234C438.68 182.06 438.268 182.013 437.874 182.099C437.481 182.186 437.128 182.401 436.873 182.711C418.39 204.857 392.259 224.175 361.474 217.839C350.965 215.683 343.496 209.968 339.065 200.693C336.726 195.8 336.249 190.3 333.731 185.503C330.915 180.181 326.083 175.929 319.234 172.748C318.112 172.223 316.585 172.461 315.392 172.724C294.264 177.337 273.999 186.024 254.597 198.783C252.402 198.632 249.069 200.45 244.598 204.236C235.745 211.742 226.342 219.641 218.013 228.316C214.983 231.474 211.781 234.711 208.408 238.028C208.098 238.339 207.903 238.708 207.823 239.138C207.728 239.695 207.453 240.14 207 240.474C206.459 240.888 205.994 241.409 205.604 242.038C203.329 245.673 200.628 249.435 197.502 253.325C193.755 257.979 190.331 266.558 185.773 272.512C184.15 274.652 182.853 277.011 181.883 279.588C181.414 280.853 180.952 282.094 180.499 283.311C180.308 283.844 180.025 283.895 179.652 283.466C179.604 283.41 179.54 283.363 179.461 283.323C179.222 283.219 178.987 283.255 178.757 283.43C178.542 283.589 178.466 283.792 178.53 284.039C178.532 284.047 178.532 284.057 178.529 284.065C178.527 284.074 178.523 284.082 178.517 284.089C178.512 284.096 178.504 284.101 178.496 284.105C178.488 284.109 178.479 284.11 178.47 284.11C177.882 284.055 177.408 283.84 177.05 283.466C176.804 283.203 176.513 283.144 176.179 283.287L174.294 284.063C173.857 284.245 173.57 284.106 173.435 283.645C173.212 282.897 173.316 282.213 173.745 281.593C173.96 281.274 174.043 280.924 173.996 280.543L173.268 275.364C173.228 275.07 173.296 274.807 173.471 274.576C173.574 274.449 173.626 274.302 173.626 274.135C173.618 271.51 172.552 269.366 170.428 267.704C169.943 267.322 169.648 267.433 169.545 268.038C169.426 268.738 168.67 268.515 167.278 267.369C167.159 267.266 167.051 267.154 166.956 267.035C166.184 266.025 166.351 264.951 167.457 263.814C167.56 263.702 167.568 263.583 167.481 263.456C167.417 263.376 167.35 263.301 167.278 263.229C167 262.943 166.721 262.943 166.443 263.229L166.132 263.527C165.886 263.782 165.834 263.746 165.977 263.42C166.868 261.511 167.616 259.502 168.221 257.394C168.435 256.646 168.742 255.966 169.139 255.354C169.569 254.694 169.927 253.99 170.213 253.242C170.269 253.099 170.333 253.095 170.404 253.23C170.428 253.27 170.46 253.29 170.5 253.29C170.738 253.305 170.885 253.198 170.941 252.967C171.299 251.321 172.015 250 173.089 249.006C173.431 248.688 173.805 248.405 174.211 248.159C174.696 247.88 175.113 247.487 175.463 246.977C177.062 244.663 177.953 243.143 178.136 242.419C178.646 240.393 179.29 238.786 179.962 237.861L183.04 233.613C183.088 233.542 183.128 233.462 183.16 233.375C183.382 232.651 183.804 232.098 184.424 231.716C184.766 231.501 185.037 231.219 185.236 230.869C186.58 228.578 188.549 226.39 191.142 224.306C191.975 223.638 192.589 222.736 192.908 221.717C193.203 220.762 193.417 220.576 193.553 221.156C193.887 222.668 194.3 222.696 194.793 221.24C197.092 214.494 201.165 209.133 207.012 205.155C208.388 204.225 209.637 203.147 210.759 201.922C213.225 199.233 215.659 196.489 218.061 193.688C219.183 192.376 220.491 191.226 221.987 190.24C223.864 189.007 225.479 187.464 226.831 185.61C227.818 184.25 229.162 183.065 230.864 182.055C234.563 179.867 238.187 177.914 241.735 176.196C243.31 175.432 244.765 174.49 246.102 173.368C247.462 172.223 248.854 171.157 250.278 170.17C252.004 168.969 253.599 167.601 255.063 166.066C255.293 165.827 255.564 165.656 255.874 165.552C257.473 165.019 258.957 164.156 260.325 162.963C261.303 162.104 262.62 161.595 264.274 161.436C265.73 161.285 266.979 160.943 268.021 160.41C270.487 159.137 272.687 157.872 274.62 156.615C275.455 156.066 276.33 155.649 277.245 155.362C278.374 155.012 279.436 154.491 280.43 153.799C281.624 152.98 282.948 152.292 284.404 151.735C293.536 148.259 301.427 145.809 308.077 144.385C310.44 143.876 312.731 143.343 314.95 142.786C317.257 142.213 319.524 141.756 321.752 141.414C327.248 140.586 332.634 138.669 337.908 135.662C360.519 134.266 385.242 134.863 407.591 139.528C424.09 142.981 440.341 148.12 456.346 154.945C463.68 158.071 470.764 161.663 477.597 165.72C512.129 186.203 539.565 212.911 559.905 245.844C567.613 258.333 574.343 272.838 580.094 289.36Z" fill="white"/>
<path d="M337.907 135.663C332.633 138.669 327.248 140.587 321.751 141.414C319.524 141.756 317.257 142.213 314.95 142.786C312.73 143.343 310.439 143.876 308.077 144.385C301.427 145.809 293.536 148.259 284.404 151.735C282.948 152.292 281.623 152.98 280.43 153.799C279.436 154.492 278.374 155.013 277.244 155.363C276.329 155.649 275.454 156.067 274.619 156.615C272.686 157.872 270.487 159.137 268.021 160.41C266.979 160.943 265.73 161.285 264.274 161.436C262.619 161.595 261.303 162.104 260.324 162.963C258.956 164.157 257.473 165.02 255.874 165.553C255.564 165.656 255.293 165.827 255.062 166.066C253.599 167.601 252.004 168.969 250.278 170.17C248.854 171.157 247.462 172.223 246.101 173.368C244.765 174.49 243.309 175.432 241.734 176.196C238.186 177.914 234.563 179.867 230.864 182.055C229.162 183.065 227.817 184.25 226.831 185.611C225.479 187.464 223.864 189.007 221.987 190.24C220.491 191.227 219.182 192.376 218.061 193.689C215.659 196.489 213.224 199.233 210.758 201.922C209.637 203.147 208.388 204.225 207.012 205.155C201.165 209.133 197.092 214.494 194.793 221.24C194.3 222.696 193.886 222.668 193.552 221.156C193.417 220.576 193.202 220.763 192.908 221.717C192.589 222.736 191.974 223.638 191.142 224.306C188.549 226.391 186.58 228.578 185.236 230.869C185.037 231.219 184.766 231.502 184.424 231.716C183.804 232.098 183.382 232.651 183.159 233.375C183.128 233.462 183.088 233.542 183.04 233.614L179.962 237.861C179.29 238.787 178.646 240.393 178.136 242.42C177.953 243.143 177.062 244.663 175.463 246.978C175.113 247.487 174.695 247.88 174.21 248.159C173.805 248.405 173.431 248.688 173.089 249.006C172.015 250 171.299 251.321 170.941 252.968C170.885 253.198 170.738 253.306 170.499 253.29C170.46 253.29 170.428 253.27 170.404 253.23C170.332 253.095 170.269 253.099 170.213 253.242C169.927 253.99 169.569 254.694 169.139 255.354C168.741 255.966 168.435 256.647 168.22 257.394C167.616 259.502 166.868 261.511 165.977 263.42C165.834 263.746 165.886 263.782 166.132 263.527L166.442 263.229C166.721 262.943 166.999 262.943 167.278 263.229C167.349 263.301 167.417 263.376 167.48 263.456C167.568 263.583 167.56 263.702 167.457 263.814C166.351 264.951 166.184 266.025 166.955 267.036C167.051 267.155 167.159 267.266 167.278 267.37C168.67 268.515 169.425 268.738 169.545 268.038C169.648 267.433 169.942 267.322 170.428 267.704C172.552 269.366 173.618 271.51 173.626 274.135C173.626 274.302 173.574 274.449 173.47 274.577C173.295 274.807 173.228 275.07 173.268 275.364L173.995 280.543C174.043 280.925 173.96 281.275 173.745 281.593C173.315 282.213 173.212 282.897 173.435 283.645C173.57 284.106 173.856 284.246 174.294 284.063L176.179 283.287C176.513 283.144 176.803 283.204 177.05 283.466C177.408 283.84 177.881 284.055 178.47 284.11C178.479 284.111 178.488 284.109 178.496 284.105C178.504 284.101 178.511 284.096 178.517 284.089C178.523 284.082 178.527 284.074 178.529 284.065C178.531 284.057 178.531 284.048 178.53 284.039C178.466 283.792 178.542 283.589 178.756 283.43C178.987 283.255 179.222 283.219 179.46 283.323C179.54 283.363 179.604 283.41 179.651 283.466C180.025 283.896 180.308 283.844 180.498 283.311C180.952 282.094 181.413 280.853 181.883 279.588C182.853 277.011 184.15 274.652 185.772 272.512C190.331 266.558 193.755 257.979 197.502 253.325C200.628 249.436 203.329 245.673 205.604 242.038C205.993 241.409 206.459 240.888 207 240.475C207.453 240.14 207.728 239.695 207.823 239.138C207.903 238.709 208.098 238.339 208.408 238.028C211.781 234.711 214.982 231.474 218.013 228.316C226.342 219.641 235.744 211.742 244.598 204.237C249.069 200.45 252.402 198.632 254.597 198.784C257.516 209.212 263.359 217.7 272.125 224.247C279.249 229.569 288.544 233.112 296.3 237.873C306.812 244.353 313.721 254.28 312.909 266.666C312.098 279.063 302.719 288.645 292.076 293.716C282.92 298.083 275.896 301.881 271.004 305.111C266.318 308.205 261.044 312.441 255.182 317.819C252.581 320.217 251.053 323.021 248.858 325.634C231.723 346.062 233.764 376.477 243.751 399.769C235.303 398.186 227.658 395.716 220.817 392.359C209.179 386.647 198.043 378.824 187.407 368.888C185.936 367.329 184.818 365.993 184.054 364.879C178.486 356.733 173.069 348.703 167.803 340.788C167.055 339.666 166.582 339.77 166.383 341.098C163.408 361.2 164.354 381.222 169.223 401.165C168.65 402.485 167.48 402.768 165.715 402.012C151.841 396.062 140.641 386.051 132.114 371.979C130.674 350.732 132.837 329.659 138.605 308.762C141.922 296.759 145.04 287.32 147.959 280.447C151.969 271.033 156.133 261.523 161.061 252.466C169.398 237.13 180.22 222.429 193.528 208.365C215.094 185.567 238.874 168.146 264.871 156.102C273.438 152.141 283.723 148.235 295.727 144.385C309.537 139.946 323.597 137.039 337.907 135.663Z" fill="#EDF3F7"/>
<path d="M517.701 241.703C503.645 246.19 494.776 249.253 491.092 250.891C477.609 256.893 466.584 264.47 456.119 274.588C448.467 282.002 441.562 289.85 435.405 298.131C430.282 305.027 424.972 312.246 419.476 319.787C413.915 327.416 405.368 337.682 393.834 350.584C386.149 359.175 377.033 367.19 366.485 374.628C361.641 378.04 356.211 380.916 351.188 383.947C341.189 389.996 330.462 393.803 319.293 397.37C314.672 398.85 310.277 399.983 306.108 400.771C293.985 403.07 280.375 403.881 265.277 403.205C257.131 402.839 250.258 401.928 244.658 400.473C244.618 400.457 244.578 400.465 244.539 400.496C244.467 400.56 244.395 400.703 244.324 400.926L243.751 399.769C233.764 376.477 231.723 346.062 248.858 325.634C251.053 323.021 252.581 320.217 255.182 317.819C261.045 312.441 266.319 308.205 271.004 305.111C275.896 301.881 282.92 298.083 292.076 293.716C302.72 288.645 312.098 279.063 312.91 266.666C313.721 254.28 306.812 244.352 296.3 237.873C288.544 233.112 279.249 229.568 272.126 224.247C263.36 217.7 257.517 209.212 254.597 198.784C273.999 186.024 294.264 177.337 315.392 172.724C316.585 172.461 318.112 172.223 319.234 172.748C326.083 175.929 330.915 180.181 333.731 185.503C336.249 190.3 336.726 195.8 339.065 200.693C343.496 209.968 350.965 215.683 361.474 217.839C392.258 224.175 418.39 204.857 436.873 182.711C437.128 182.401 437.481 182.186 437.874 182.099C438.268 182.013 438.679 182.06 439.044 182.234C454.866 189.751 469.853 197.841 483.706 208.687C496.068 218.36 507.4 229.366 517.701 241.703Z" fill="#00252D"/>
<path d="M517.701 241.703L528.261 257.155C532.326 263.368 534.839 267.354 535.802 269.112C538.212 273.495 541.394 280.519 545.348 290.184C547.495 295.434 549.182 300.258 550.407 304.657C552.96 313.809 555.764 323.582 556.218 333.187C556.221 333.278 556.204 333.368 556.168 333.452C556.131 333.535 556.077 333.609 556.008 333.669C555.94 333.728 555.858 333.771 555.771 333.795C555.683 333.82 555.591 333.824 555.502 333.808C533.535 329.607 511.759 332.948 492.285 343.938C482.604 349.403 473.906 356.188 466.19 364.294C462.698 367.961 458.581 373.653 453.84 381.369C451.477 385.223 449.926 389.757 448.053 394.041C446.701 397.159 445.643 400.429 444.879 403.849C442.413 415.018 442.19 426.389 444.211 437.963C446.557 447.947 450.646 457.162 456.477 465.61C457.471 467.05 458.919 467.905 460.82 468.175C472.546 469.854 483.241 473.736 492.906 479.821C498.765 483.52 504.086 488.794 509.599 493.328C509.657 493.378 509.704 493.439 509.737 493.507C509.771 493.575 509.79 493.649 509.793 493.724C509.796 493.799 509.784 493.874 509.757 493.944C509.729 494.013 509.688 494.076 509.635 494.128C502.046 501.812 494.453 508.816 486.856 515.14C477.06 523.29 465.999 529.793 455.045 536.093C433.006 548.753 408.056 555.447 382.211 558.896C374.519 559.922 366.556 560.244 358.323 559.862C344.418 559.21 332.645 557.861 323.004 555.817C309.298 552.922 294.745 548.077 279.344 541.284C245.696 526.44 217.476 499.247 197.227 469.285C183.8 449.414 174.465 426.707 169.223 401.165C164.354 381.222 163.408 361.2 166.383 341.098C166.582 339.77 167.055 339.666 167.803 340.788C173.069 348.703 178.486 356.733 184.054 364.879C184.818 365.993 185.935 367.329 187.407 368.888C190.716 374.973 195.732 381.64 202.454 388.886C210.456 397.517 217.452 403.567 223.442 407.035C231.787 411.864 239.861 415.507 247.664 417.965C249.255 418.466 250.882 418.776 252.545 418.896C252.651 418.904 252.758 418.882 252.853 418.833C252.948 418.784 253.027 418.709 253.082 418.617C253.136 418.526 253.164 418.42 253.162 418.313C253.16 418.207 253.128 418.102 253.07 418.013C249.578 412.572 246.662 406.876 244.323 400.926C244.395 400.703 244.467 400.56 244.538 400.496C244.578 400.465 244.618 400.457 244.658 400.472C250.258 401.928 257.131 402.839 265.276 403.205C280.374 403.881 293.985 403.07 306.108 400.771C310.276 399.983 314.671 398.85 319.293 397.37C330.462 393.802 341.189 389.996 351.188 383.946C356.211 380.916 361.64 378.04 366.485 374.627C377.033 367.19 386.149 359.175 393.833 350.584C405.368 337.682 413.915 327.416 419.475 319.787C424.972 312.246 430.282 305.027 435.405 298.13C441.562 289.85 448.467 282.002 456.119 274.588C466.584 264.47 477.609 256.893 491.092 250.891C494.775 249.252 503.645 246.19 517.701 241.703ZM509.26 300.436C511.069 295.959 510.99 290.932 509.038 286.46C507.087 281.989 503.424 278.44 498.856 276.594C496.594 275.68 494.177 275.212 491.745 275.216C489.312 275.22 486.911 275.697 484.678 276.618C482.445 277.539 480.424 278.888 478.731 280.586C477.037 282.285 475.705 284.3 474.809 286.517C473 290.995 473.08 296.022 475.031 300.494C476.983 304.965 480.645 308.514 485.214 310.359C487.476 311.273 489.892 311.742 492.325 311.738C494.758 311.734 497.159 311.257 499.392 310.336C501.625 309.414 503.646 308.066 505.339 306.367C507.032 304.669 508.365 302.654 509.26 300.436Z" fill="#000004"/>
<path d="M528.261 257.156C529.574 257.665 530.838 257.983 532.056 258.11C532.756 258.174 533.428 258.094 534.072 257.872C534.804 257.625 535.468 257.764 536.065 258.289C536.334 258.527 536.56 258.72 536.721 258.85C537.031 259.097 537.286 259.065 537.485 258.755C537.564 258.619 537.684 258.544 537.843 258.528C540.285 258.337 542.572 258.126 544.704 257.896C545.968 257.76 547.285 257.9 548.653 258.313C548.955 258.401 549.13 258.6 549.178 258.91C549.258 259.443 549.556 259.789 550.073 259.948C550.471 260.075 550.678 260.346 550.694 260.759C550.733 262.04 551.342 262.764 552.519 262.931C552.941 262.995 553.203 263.229 553.307 263.635C553.514 264.462 553.724 265.266 553.939 266.045C554.114 266.658 554.512 266.992 555.132 267.048C555.546 267.079 555.888 267.258 556.158 267.584C556.771 268.34 557.455 268.988 558.211 269.529C559.499 270.472 560.394 272.047 561.17 273.431C561.385 273.805 561.707 273.988 562.136 273.98C562.304 273.972 562.467 274 562.626 274.064C562.984 274.191 563.274 274.41 563.497 274.72C564.165 275.619 564.933 276.319 565.8 276.82C566.333 277.13 566.293 277.285 565.68 277.285L564.833 277.297C563.942 277.297 563.779 277.643 564.344 278.335C566.054 280.443 567.892 282.329 569.857 283.991C570.108 284.203 570.308 284.464 570.441 284.755L570.763 285.423C570.931 285.789 571.201 286.04 571.575 286.175C572.267 286.429 572.832 286.879 573.269 287.523C573.635 288.064 574.136 288.259 574.773 288.108C575.019 288.052 575.25 287.957 575.465 287.821C576.006 287.463 576.32 287.603 576.407 288.239C576.431 288.366 576.507 288.438 576.634 288.454C577.318 288.502 577.473 288.597 577.099 288.74C577.004 288.78 576.905 288.788 576.801 288.764C576.791 288.763 576.78 288.765 576.771 288.769C576.762 288.774 576.753 288.78 576.747 288.789C576.741 288.797 576.738 288.807 576.737 288.817C576.736 288.828 576.737 288.838 576.741 288.848C576.972 289.333 577.318 289.715 577.78 289.993C578.138 290.216 578.42 290.144 578.627 289.778C578.985 289.15 579.474 289.011 580.094 289.361C587.023 308.683 590.961 328.574 591.907 349.033C592.138 354.085 592.369 359.136 592.599 364.187L592.086 371.645C592.055 372.101 591.87 372.534 591.561 372.874C588.363 376.441 586.025 380.558 582.648 384.102C575.154 391.989 566.05 398.969 556.564 402C555.976 402.191 555.737 401.976 555.848 401.356C558.29 387.809 559.356 374.683 559.046 361.98C559.04 361.748 558.981 361.521 558.872 361.316C558.763 361.112 558.609 360.935 558.42 360.801C558.231 360.667 558.014 360.578 557.785 360.543C557.556 360.507 557.322 360.525 557.101 360.596C543.459 365.003 531.268 371.557 520.529 380.26C510.323 388.525 498.777 398.54 485.89 410.305C475.374 419.89 463.975 428.159 451.693 435.112C449.402 436.4 446.693 437.116 444.211 437.964C442.191 426.389 442.413 415.018 444.879 403.85C445.643 400.429 446.701 397.16 448.053 394.041C449.927 389.758 451.478 385.223 453.84 381.369C458.581 373.653 462.698 367.962 466.19 364.294C473.906 356.189 482.605 349.403 492.286 343.938C511.759 332.949 533.535 329.608 555.502 333.808C555.592 333.824 555.684 333.82 555.771 333.796C555.859 333.772 555.94 333.728 556.009 333.669C556.077 333.609 556.132 333.535 556.168 333.452C556.204 333.369 556.221 333.278 556.218 333.187C555.765 323.582 552.961 313.81 550.407 304.658C549.182 300.259 547.496 295.434 545.348 290.184C541.394 280.519 538.213 273.495 535.802 269.112C534.84 267.354 532.326 263.368 528.261 257.156Z" fill="#EDF3F7"/>
<path d="M485.214 310.36C494.728 314.203 505.494 309.76 509.261 300.436C513.028 291.113 508.37 280.438 498.856 276.594C489.343 272.751 478.577 277.193 474.81 286.517C471.042 295.841 475.701 306.516 485.214 310.36Z" fill="white"/>
<path d="M592.599 364.187C592.663 372.874 591.656 384.722 589.58 399.733C587.695 413.399 584.374 426.413 579.617 438.775C571.968 458.63 563.377 477.053 550.86 494.248C543.598 504.215 536.124 513.327 528.44 521.584C521.034 529.531 511.95 537.685 501.187 546.045C497.858 548.634 494.147 550.364 490.854 552.906C489.541 553.916 488.185 554.871 486.785 555.77C466.548 568.728 444.927 577.629 421.934 584.443C414.496 586.646 407.062 588.261 399.632 589.287C363.693 594.235 330.211 592.401 299.188 583.786C285.354 579.944 270.348 573.831 254.168 565.447C221.199 548.36 192.061 520.534 170.774 489.475C147.793 455.969 135.479 414.398 131.899 373.184C132.074 372.961 132.146 372.56 132.114 371.979C140.641 386.051 151.842 396.062 165.715 402.012C167.481 402.768 168.65 402.485 169.223 401.165C174.465 426.708 183.8 449.415 197.227 469.286C217.476 499.247 245.696 526.441 279.344 541.284C294.745 548.078 309.298 552.922 323.004 555.817C332.645 557.862 344.418 559.21 358.323 559.863C366.557 560.244 374.519 559.922 382.211 558.896C408.057 555.448 433.007 548.754 455.045 536.094C465.999 529.793 477.06 523.29 486.856 515.141C494.453 508.817 502.046 501.813 509.635 494.128C509.688 494.076 509.73 494.013 509.757 493.944C509.784 493.874 509.796 493.8 509.793 493.725C509.79 493.649 509.771 493.575 509.737 493.507C509.704 493.439 509.657 493.378 509.599 493.329C504.086 488.795 498.765 483.521 492.906 479.822C483.241 473.736 472.546 469.854 460.82 468.176C458.919 467.905 457.472 467.05 456.477 465.61C450.646 457.162 446.558 447.947 444.211 437.964C446.693 437.116 449.401 436.401 451.692 435.112C463.975 428.159 475.374 419.89 485.89 410.305C498.777 398.54 510.323 388.525 520.529 380.26C531.268 371.557 543.459 365.003 557.101 360.596C557.322 360.525 557.556 360.507 557.785 360.543C558.014 360.578 558.231 360.667 558.42 360.801C558.608 360.936 558.763 361.112 558.872 361.317C558.981 361.521 559.04 361.748 559.046 361.98C559.356 374.684 558.29 387.809 555.848 401.356C555.737 401.976 555.975 402.191 556.564 402C566.05 398.969 575.154 391.989 582.648 384.102C586.025 380.558 588.363 376.442 591.561 372.874C591.87 372.534 592.055 372.101 592.086 371.645L592.599 364.187Z" fill="#4F6B79"/>
<path d="M187.407 368.888C198.043 378.824 209.179 386.647 220.817 392.359C227.658 395.716 235.303 398.186 243.751 399.769L244.324 400.926C246.662 406.876 249.578 412.572 253.07 418.013C253.128 418.102 253.16 418.207 253.162 418.313C253.164 418.42 253.136 418.526 253.082 418.618C253.027 418.709 252.948 418.784 252.853 418.833C252.758 418.883 252.651 418.904 252.545 418.896C250.882 418.776 249.256 418.466 247.665 417.965C239.861 415.507 231.787 411.864 223.442 407.035C217.452 403.567 210.456 397.517 202.454 388.886C195.732 381.64 190.716 374.974 187.407 368.888Z" fill="#4F6B79"/>
</svg>
